<svg width="25" height="21" viewBox="0 0 25 21" fill="none" xmlns="http://www.w3.org/2000/svg">
<path d="M18.0313 7.45765L13.4159 0.54511C13.2157 0.250063 12.8785 0.102539 12.5413 0.102539C12.2041 0.102539 11.867 0.250063 11.6667 0.555648L7.05135 7.45765H2.00394C1.42438 7.45765 0.950195 7.93183 0.950195 8.51139C0.950195 8.60623 0.960733 8.70106 0.992345 8.7959L3.66885 18.5641C3.91121 19.4492 4.72259 20.1025 5.69203 20.1025H19.3907C20.3601 20.1025 21.1715 19.4492 21.4244 18.5641L24.1009 8.7959L24.1325 8.51139C24.1325 7.93183 23.6583 7.45765 23.0788 7.45765H18.0313ZM9.38012 7.45765L12.5413 2.82119L15.7026 7.45765H9.38012ZM12.5413 15.8876C11.3822 15.8876 10.4339 14.9392 10.4339 13.7801C10.4339 12.621 11.3822 11.6726 12.5413 11.6726C13.7005 11.6726 14.6488 12.621 14.6488 13.7801C14.6488 14.9392 13.7005 15.8876 12.5413 15.8876Z" fill="#FF3446"/>
</svg>
