<svg width="30" height="31" viewBox="0 0 30 31" fill="none" xmlns="http://www.w3.org/2000/svg">
<path d="M9 24.835C7.35 24.835 6.015 26.185 6.015 27.835C6.015 29.485 7.35 30.835 9 30.835C10.65 30.835 12 29.485 12 27.835C12 26.185 10.65 24.835 9 24.835ZM0 0.834961V3.83496H3L8.4 15.22L6.375 18.895C6.135 19.315 6 19.81 6 20.335C6 21.985 7.35 23.335 9 23.335H27V20.335H9.63C9.42 20.335 9.255 20.17 9.255 19.96L9.3 19.78L10.65 17.335H21.825C22.95 17.335 23.94 16.72 24.45 15.79L29.82 6.05496C29.94 5.84496 30 5.58996 30 5.33496C30 4.50996 29.325 3.83496 28.5 3.83496H6.315L4.905 0.834961H0ZM24 24.835C22.35 24.835 21.015 26.185 21.015 27.835C21.015 29.485 22.35 30.835 24 30.835C25.65 30.835 27 29.485 27 27.835C27 26.185 25.65 24.835 24 24.835Z" fill="#FF3446"/>
</svg>
