<svg width="21" height="16" viewBox="0 0 21 16" fill="none" xmlns="http://www.w3.org/2000/svg">
<path d="M17.5257 4.53138H14.7984V0.89502H2.07111C1.07111 0.89502 0.25293 1.7132 0.25293 2.7132V12.7132H2.07111C2.07111 14.2223 3.28929 15.4405 4.79838 15.4405C6.30748 15.4405 7.52566 14.2223 7.52566 12.7132H12.9802C12.9802 14.2223 14.1984 15.4405 15.7075 15.4405C17.2166 15.4405 18.4347 14.2223 18.4347 12.7132H20.2529V8.16775L17.5257 4.53138ZM4.79838 14.0768C4.04384 14.0768 3.43475 13.4677 3.43475 12.7132C3.43475 11.9587 4.04384 11.3496 4.79838 11.3496C5.55293 11.3496 6.16202 11.9587 6.16202 12.7132C6.16202 13.4677 5.55293 14.0768 4.79838 14.0768ZM17.0711 5.89502L18.8529 8.16775H14.7984V5.89502H17.0711ZM15.7075 14.0768C14.9529 14.0768 14.3438 13.4677 14.3438 12.7132C14.3438 11.9587 14.9529 11.3496 15.7075 11.3496C16.462 11.3496 17.0711 11.9587 17.0711 12.7132C17.0711 13.4677 16.462 14.0768 15.7075 14.0768Z" fill="#FF3446"/>
</svg>
