<svg width="21" height="21" viewBox="0 0 21 21" fill="none" xmlns="http://www.w3.org/2000/svg">
<path d="M14.8429 6.04143L8.25293 12.6314L4.66293 9.05143L3.25293 10.4614L8.25293 15.4614L16.2529 7.46143L14.8429 6.04143ZM10.2529 0.461426C4.73293 0.461426 0.25293 4.94143 0.25293 10.4614C0.25293 15.9814 4.73293 20.4614 10.2529 20.4614C15.7729 20.4614 20.2529 15.9814 20.2529 10.4614C20.2529 4.94143 15.7729 0.461426 10.2529 0.461426ZM10.2529 18.4614C5.83293 18.4614 2.25293 14.8814 2.25293 10.4614C2.25293 6.04143 5.83293 2.46143 10.2529 2.46143C14.6729 2.46143 18.2529 6.04143 18.2529 10.4614C18.2529 14.8814 14.6729 18.4614 10.2529 18.4614Z" fill="#FF3446"/>
</svg>
