<svg width="16" height="22" viewBox="0 0 16 22" fill="none" xmlns="http://www.w3.org/2000/svg">
<path d="M5.00293 8.56861V4.82861C5.00293 3.44861 6.12293 2.32861 7.50293 2.32861C8.88293 2.32861 10.0029 3.44861 10.0029 4.82861V8.56861C11.2129 7.75861 12.0029 6.38861 12.0029 4.82861C12.0029 2.33861 9.99293 0.328613 7.50293 0.328613C5.01293 0.328613 3.00293 2.33861 3.00293 4.82861C3.00293 6.38861 3.79293 7.75861 5.00293 8.56861ZM14.8429 13.1986L10.3029 10.9386C10.1329 10.8686 9.95293 10.8286 9.76293 10.8286H9.00293V4.82861C9.00293 3.99861 8.33293 3.32861 7.50293 3.32861C6.67293 3.32861 6.00293 3.99861 6.00293 4.82861V15.5686L2.57293 14.8486C2.49293 14.8386 2.42293 14.8186 2.33293 14.8186C2.02293 14.8186 1.74293 14.9486 1.54293 15.1486L0.75293 15.9486L5.69293 20.8886C5.96293 21.1586 6.34293 21.3286 6.75293 21.3286H13.5429C14.2929 21.3286 14.8729 20.7786 14.9829 20.0486L15.7329 14.7786C15.7429 14.7086 15.7529 14.6386 15.7529 14.5786C15.7529 13.9586 15.3729 13.4186 14.8429 13.1986Z" fill="#FF3446"/>
</svg>
