<svg width="30" height="31" viewBox="0 0 30 31" fill="none" xmlns="http://www.w3.org/2000/svg">
<path d="M1.95651 2.47636C-0.393759 4.9176 0.0872607 7.51087 0.0872607 15.3891C0.0872607 21.9315 -1.05423 28.49 4.91989 30.034C6.78539 30.5138 23.3145 30.5138 25.1775 30.0315C27.6649 29.3898 29.6886 27.3722 29.9653 23.8543C30.0039 23.3633 30.0039 7.42364 29.964 6.92268C29.6699 3.17546 27.3633 1.01586 24.3239 0.578456C23.6273 0.477517 23.4877 0.447609 19.9137 0.441378C7.2365 0.447609 4.45756 -0.116904 1.95651 2.47636Z" fill="url(#paint0_linear_312_582)"/>
<path d="M15.0387 4.35294C10.5139 4.35294 6.21711 3.95043 4.57591 8.16247C3.898 9.90211 3.99644 12.1614 3.99644 15.3965C3.99644 18.2352 3.90547 20.9032 4.57591 22.6292C6.21337 26.8437 10.545 26.44 15.0362 26.44C19.3691 26.44 23.8366 26.8911 25.4978 22.6292C26.1769 20.8721 26.0772 18.6464 26.0772 15.3965C26.0772 11.0822 26.3152 8.29705 24.2229 6.20599C22.1045 4.08751 19.2395 4.35294 15.0337 4.35294H15.0387ZM14.0492 6.34307C23.4877 6.32811 24.689 5.27884 24.026 19.8552C23.7905 25.0106 19.8651 24.4448 15.0399 24.4448C6.24203 24.4448 5.98906 24.1931 5.98906 15.3915C5.98906 6.48762 6.68691 6.34805 14.0492 6.34057V6.34307ZM20.9331 8.17617C20.2016 8.17617 19.6084 8.76935 19.6084 9.50085C19.6084 10.2323 20.2016 10.8255 20.9331 10.8255C21.6646 10.8255 22.2577 10.2323 22.2577 9.50085C22.2577 8.76935 21.6646 8.17617 20.9331 8.17617ZM15.0387 9.72516C11.9071 9.72516 9.36866 12.2648 9.36866 15.3965C9.36866 18.5281 11.9071 21.0665 15.0387 21.0665C18.1703 21.0665 20.7075 18.5281 20.7075 15.3965C20.7075 12.2648 18.1703 9.72516 15.0387 9.72516ZM15.0387 11.7153C19.905 11.7153 19.9112 19.0776 15.0387 19.0776C10.1737 19.0776 10.1662 11.7153 15.0387 11.7153Z" fill="white"/>
<defs>
<linearGradient id="paint0_linear_312_582" x1="2.01386" y1="28.4391" x2="29.8101" y2="4.38172" gradientUnits="userSpaceOnUse">
<stop stop-color="#FFDD55"/>
<stop offset="0.5" stop-color="#FF543E"/>
<stop offset="1" stop-color="#C837AB"/>
</linearGradient>
</defs>
</svg>
