<svg width="23" height="21" viewBox="0 0 23 21" fill="none" xmlns="http://www.w3.org/2000/svg">
<path d="M0.25293 20.2256H4.25293V8.22559H0.25293V20.2256ZM22.2529 9.22559C22.2529 8.12559 21.3529 7.22559 20.2529 7.22559H13.9429L14.8929 2.65559L14.9229 2.33559C14.9229 1.92559 14.7529 1.54559 14.4829 1.27559L13.4229 0.225586L6.84293 6.81559C6.47293 7.17559 6.25293 7.67559 6.25293 8.22559V18.2256C6.25293 19.3256 7.15293 20.2256 8.25293 20.2256H17.2529C18.0829 20.2256 18.7929 19.7256 19.0929 19.0056L22.1129 11.9556C22.2029 11.7256 22.2529 11.4856 22.2529 11.2256V9.22559Z" fill="#FF3446"/>
</svg>
