<svg width="79" height="79" viewBox="0 0 79 79" fill="none" xmlns="http://www.w3.org/2000/svg">
<path d="M56.03 49.383H52.5003L51.2493 48.1767C55.6279 43.0833 58.264 36.4707 58.264 29.2774C58.264 13.2375 45.2623 0.23584 29.2224 0.23584C13.1826 0.23584 0.180908 13.2375 0.180908 29.2774C0.180908 45.3172 13.1826 58.3189 29.2224 58.3189C36.4158 58.3189 43.0283 55.6828 48.1218 51.3043L49.3281 52.5553V56.0849L71.6678 78.3799L78.325 71.7227L56.03 49.383ZM29.2224 49.383C18.0973 49.383 9.11676 40.4025 9.11676 29.2774C9.11676 18.1522 18.0973 9.1717 29.2224 9.1717C40.3476 9.1717 49.3281 18.1522 49.3281 29.2774C49.3281 40.4025 40.3476 49.383 29.2224 49.383Z" fill="white"/>
<path d="M40.3923 31.5117H31.4564V40.4475H26.9885V31.5117H18.0526V27.0438H26.9885V18.1079H31.4564V27.0438H40.3923V31.5117Z" fill="white"/>
</svg>
