<svg width="41" height="41" viewBox="0 0 41 41" fill="none" xmlns="http://www.w3.org/2000/svg">
<path d="M29.3441 25.85H27.5047L26.8527 25.2214C29.1346 22.5669 30.5084 19.1209 30.5084 15.3721C30.5084 7.01303 23.7326 0.237305 15.3736 0.237305C7.0145 0.237305 0.23877 7.01303 0.23877 15.3721C0.23877 23.7312 7.0145 30.5069 15.3736 30.5069C19.1223 30.5069 22.5684 29.1331 25.2228 26.8513L25.8515 27.5032V29.3427L37.4936 40.9615L40.963 37.4922L29.3441 25.85ZM15.3736 25.85C9.57577 25.85 4.89563 21.1699 4.89563 15.3721C4.89563 9.57431 9.57577 4.89416 15.3736 4.89416C21.1714 4.89416 25.8515 9.57431 25.8515 15.3721C25.8515 21.1699 21.1714 25.85 15.3736 25.85Z" fill="white"/>
<path d="M21.1946 16.5364H16.5378V21.1933H14.2093V16.5364H9.55249V14.208H14.2093V9.55115H16.5378V14.208H21.1946V16.5364Z" fill="white"/>
</svg>
