<svg width="21" height="20" viewBox="0 0 21 20" fill="none" xmlns="http://www.w3.org/2000/svg">
<path d="M10.541 0C8.5632 0 6.62981 0.586489 4.98532 1.6853C3.34083 2.78412 2.0591 4.3459 1.30222 6.17316C0.545348 8.00043 0.347315 10.0111 0.733167 11.9509C1.11902 13.8907 2.07143 15.6725 3.46995 17.0711C4.86848 18.4696 6.65031 19.422 8.59011 19.8078C10.5299 20.1937 12.5406 19.9957 14.3679 19.2388C16.1951 18.4819 17.7569 17.2002 18.8557 15.5557C19.9545 13.9112 20.541 11.9778 20.541 10C20.5381 7.34874 19.4836 4.80691 17.6088 2.93218C15.7341 1.05745 13.1923 0.00294095 10.541 0ZM11.8388 10.2467H9.44324V11.5044H12.2499C12.3678 11.5044 12.4808 11.5513 12.5642 11.6346C12.6475 11.718 12.6943 11.831 12.6943 11.9489C12.6943 12.0668 12.6475 12.1798 12.5642 12.2632C12.4808 12.3465 12.3678 12.3933 12.2499 12.3933H9.44324V14.7044C9.44324 14.8223 9.39641 14.9354 9.31306 15.0187C9.22972 15.1021 9.11667 15.1489 8.9988 15.1489C8.88092 15.1489 8.76788 15.1021 8.68453 15.0187C8.60118 14.9354 8.55435 14.8223 8.55435 14.7044V12.3933H7.42991C7.31203 12.3933 7.19899 12.3465 7.11564 12.2632C7.03229 12.1798 6.98546 12.0668 6.98546 11.9489C6.98546 11.831 7.03229 11.718 7.11564 11.6346C7.19899 11.5513 7.31203 11.5044 7.42991 11.5044H8.54102V10.2467H7.42991C7.31203 10.2467 7.19899 10.1998 7.11564 10.1165C7.03229 10.0331 6.98546 9.92009 6.98546 9.80222C6.98546 9.68435 7.03229 9.5713 7.11564 9.48795C7.19899 9.4046 7.31203 9.35778 7.42991 9.35778H8.54102V5.98C8.5416 5.68078 8.66073 5.39398 8.87231 5.1824C9.08389 4.97082 9.37069 4.8517 9.66991 4.85111H11.8255C12.541 4.85111 13.2271 5.13534 13.7331 5.64127C14.239 6.1472 14.5232 6.83339 14.5232 7.54889C14.5232 8.26438 14.239 8.95057 13.7331 9.4565C13.2271 9.96243 12.541 10.2467 11.8255 10.2467H11.8388Z" fill="#FF3446"/>
</svg>
