<svg width="18" height="20" viewBox="0 0 18 20" fill="none" xmlns="http://www.w3.org/2000/svg">
<path d="M0.458984 4.63525C0.458984 3.50114 0.827148 2.58285 1.56348 1.88037C2.2998 1.16943 3.26465 0.813965 4.45801 0.813965C5.66829 0.813965 6.6416 1.1652 7.37793 1.86768C8.11426 2.56169 8.48242 3.50537 8.48242 4.69873V5.61279C8.48242 6.75537 8.11426 7.67367 7.37793 8.36768C6.6416 9.06169 5.67676 9.40869 4.4834 9.40869C3.28158 9.40869 2.30827 9.06169 1.56348 8.36768C0.827148 7.6652 0.458984 6.72152 0.458984 5.53662V4.63525ZM2.89648 5.61279C2.89648 6.12061 3.04036 6.53109 3.32812 6.84424C3.62435 7.14893 4.00944 7.30127 4.4834 7.30127C4.95736 7.30127 5.33398 7.14469 5.61328 6.83154C5.89258 6.51839 6.03223 6.09945 6.03223 5.57471V4.63525C6.03223 4.12744 5.89258 3.71696 5.61328 3.40381C5.33398 3.09066 4.94889 2.93408 4.45801 2.93408C3.99251 2.93408 3.61589 3.09066 3.32812 3.40381C3.04036 3.7085 2.89648 4.1359 2.89648 4.68604V5.61279ZM9.29492 15.0327C9.29492 13.8901 9.66732 12.9718 10.4121 12.2778C11.1569 11.5754 12.1217 11.2241 13.3066 11.2241C14.5085 11.2241 15.4775 11.5711 16.2139 12.2651C16.9587 12.9507 17.3311 13.8986 17.3311 15.1089V16.0229C17.3311 17.1571 16.9671 18.0754 16.2393 18.7778C15.5114 19.4718 14.5423 19.8188 13.332 19.8188C12.1133 19.8188 11.1357 19.4676 10.3994 18.7651C9.66309 18.0627 9.29492 17.1317 9.29492 15.9722V15.0327ZM11.7324 16.0229C11.7324 16.4884 11.8848 16.8862 12.1895 17.2163C12.4941 17.5464 12.875 17.7114 13.332 17.7114C14.3646 17.7114 14.8809 17.1401 14.8809 15.9976V15.0327C14.8809 14.5249 14.737 14.1187 14.4492 13.814C14.1615 13.5008 13.7806 13.3442 13.3066 13.3442C12.8327 13.3442 12.4518 13.5008 12.1641 13.814C11.8763 14.1187 11.7324 14.5376 11.7324 15.0708V16.0229ZM5.20703 18.1812L3.41699 17.2163L12.4434 2.76904L14.2334 3.73389L5.20703 18.1812Z" fill="#FF3446"/>
</svg>
