<svg width="31" height="31" viewBox="0 0 31 31" fill="none" xmlns="http://www.w3.org/2000/svg">
<g clip-path="url(#clip0_312_10368)">
<path d="M15.5933 0.586914C7.33172 0.586914 0.619141 7.2995 0.619141 15.5611C0.619141 21.7056 4.28524 26.9725 9.60364 29.296C9.55199 28.2633 9.60364 26.9725 9.86183 25.8365C10.1717 24.5972 11.7723 17.6781 11.7723 17.6781C11.7723 17.6781 11.3076 16.6971 11.3076 15.3029C11.3076 13.0826 12.5985 11.4303 14.1991 11.4303C15.5417 11.4303 16.2129 12.463 16.2129 13.7022C16.2129 15.0447 15.3351 17.1101 14.8704 19.0206C14.509 20.6213 15.6449 21.9121 17.2456 21.9121C20.0856 21.9121 21.9961 18.246 21.9961 13.9603C21.9961 10.6556 19.7757 8.22883 15.7482 8.22883C11.2043 8.22883 8.36441 11.6367 8.36441 15.4061C8.36441 16.697 8.72584 17.6264 9.34546 18.3493C9.60364 18.6591 9.65529 18.814 9.55199 19.1754C9.50035 19.4336 9.29381 20.1049 9.24216 20.363C9.13886 20.7244 8.82908 20.8794 8.46765 20.7244C6.35062 19.8466 5.42117 17.5747 5.42117 14.9929C5.42117 10.7589 8.98397 5.64702 16.1096 5.64702C21.8411 5.64702 25.6105 9.77784 25.6105 14.2184C25.6105 20.1048 22.3575 24.4938 17.5555 24.4938C15.9547 24.4938 14.4057 23.616 13.8894 22.635C13.8894 22.635 13.0116 26.0945 12.8567 26.7658C12.5468 27.9018 11.9272 29.0894 11.3592 29.9672C12.7018 30.3803 14.1475 30.5868 15.5933 30.5868C23.8549 30.5868 30.5675 23.8742 30.5675 15.6126C30.5675 7.35103 23.855 0.586914 15.5933 0.586914Z" fill="#CB1F24"/>
</g>
<defs>
<clipPath id="clip0_312_10368">
<rect width="30" height="30" fill="white" transform="translate(0.591797 0.586914)"/>
</clipPath>
</defs>
</svg>
