<svg width="31" height="28" viewBox="0 0 31 28" fill="none" xmlns="http://www.w3.org/2000/svg">
<path d="M28.3566 0.244988C27.8573 0.192113 27.3146 0.269973 26.7693 0.485223C26.0933 0.750722 15.5009 5.19996 5.62677 9.35046L2.36414 10.7215C1.10077 11.2331 0.462891 12.0649 0.462891 13.1854C0.462891 13.9699 0.795397 15.034 2.38174 15.661L7.8889 17.8641C8.3651 19.2906 9.47116 22.6028 9.74907 23.4833C9.91431 24.0053 10.3317 25.3203 11.3863 25.6278C11.6026 25.7013 11.8283 25.7391 12.0581 25.7391C12.7236 25.7391 13.2028 25.4299 13.4371 25.2499L16.9374 22.2938L21.1888 26.2196C21.3526 26.3861 22.2192 27.2274 23.3835 27.2274C24.8361 27.2274 25.938 26.0199 26.1679 24.8514C26.2925 24.2109 30.3928 3.658 30.3928 3.661C30.7609 2.0125 30.0991 1.15734 29.674 0.79284C29.3097 0.48159 28.8559 0.297863 28.3566 0.244988ZM27.362 3.48522C26.7957 6.32022 23.7084 21.7948 23.2397 24.0253L17.0254 18.286L12.8093 21.8514L13.977 17.2899C13.977 17.2899 22.0327 9.1477 22.5179 8.6737C22.9085 8.2942 22.9903 8.16117 22.9903 8.02917C22.9903 7.85367 22.8998 7.72741 22.691 7.72741C22.5033 7.72741 22.2482 7.90708 22.113 7.99108C20.3955 9.06031 13.0818 13.2208 9.48207 15.2655L4.25951 13.1825L6.79451 12.119C13.2525 9.40401 24.7541 4.56822 27.362 3.48522Z" fill="white"/>
</svg>
