<svg width="31" height="31" viewBox="0 0 31 31" fill="none" xmlns="http://www.w3.org/2000/svg">
<path d="M15.0918 30.5869C23.3761 30.5869 30.0918 23.8712 30.0918 15.5869C30.0918 7.30264 23.3761 0.586914 15.0918 0.586914C6.80753 0.586914 0.0917969 7.30264 0.0917969 15.5869C0.0917969 23.8712 6.80753 30.5869 15.0918 30.5869Z" fill="#4D76A1"/>
<path fill-rule="evenodd" clip-rule="evenodd" d="M14.5252 22.1659H15.7026C15.7026 22.1659 16.0582 22.1268 16.2397 21.9311C16.4069 21.7514 16.4015 21.414 16.4015 21.414C16.4015 21.414 16.3785 19.8342 17.1117 19.6016C17.8344 19.3725 18.7626 21.1284 19.7463 21.8036C20.4902 22.3145 21.0554 22.2025 21.0554 22.2025L23.6857 22.1659C23.6857 22.1659 25.0617 22.0811 24.4093 20.9993C24.3558 20.9108 24.0293 20.199 22.4536 18.7363C20.8043 17.2055 21.0252 17.4531 23.0119 14.8052C24.2218 13.1926 24.7055 12.208 24.5545 11.7864C24.4103 11.3847 23.5205 11.4909 23.5205 11.4909L20.5589 11.5093C20.5589 11.5093 20.3393 11.4794 20.1765 11.5767C20.0174 11.6722 19.915 11.8947 19.915 11.8947C19.915 11.8947 19.4463 13.1426 18.8211 14.2038C17.5023 16.4432 16.9751 16.5614 16.7595 16.4224C16.2582 16.0983 16.3833 15.1204 16.3833 14.4258C16.3833 12.2556 16.7125 11.3508 15.7424 11.1166C15.4205 11.0387 15.1835 10.9874 14.3603 10.9791C13.3035 10.9682 12.4091 10.9823 11.9027 11.2305C11.5658 11.3954 11.3059 11.7631 11.4642 11.7842C11.6599 11.8104 12.1032 11.9037 12.3383 12.2238C12.6417 12.6367 12.6311 13.564 12.6311 13.564C12.6311 13.564 12.8054 16.1186 12.2238 16.436C11.8246 16.6536 11.277 16.2092 10.1013 14.1776C9.49885 13.1369 9.04402 11.9866 9.04402 11.9866C9.04402 11.9866 8.95632 11.7717 8.7999 11.6567C8.61005 11.5174 8.3448 11.473 8.3448 11.473L5.53053 11.4914C5.53053 11.4914 5.10806 11.5032 4.95297 11.6869C4.815 11.8503 4.94201 12.1883 4.94201 12.1883C4.94201 12.1883 7.14529 17.343 9.64004 19.9407C11.9276 22.3223 14.5252 22.1659 14.5252 22.1659Z" fill="white"/>
</svg>
