<svg width="31" height="31" viewBox="0 0 31 31" fill="none" xmlns="http://www.w3.org/2000/svg">
<path d="M15.4343 0.227539C7.16311 0.227539 0.42981 6.9451 0.426805 15.2041C0.425303 17.8441 1.1178 20.4214 2.43074 22.6924L0.394531 30.2275L8.25477 28.373C10.4465 29.567 12.9138 30.1938 15.4255 30.1953H15.4314C23.7011 30.1953 30.4315 23.4762 30.436 15.2188C30.439 11.2152 28.8799 7.45114 26.0467 4.61914C23.2135 1.78864 19.4483 0.229039 15.4343 0.227539ZM15.4314 3.22754C18.6401 3.22904 21.6556 4.47823 23.9224 6.74023C26.1893 9.00523 27.4345 12.0148 27.4315 15.2158C27.4285 21.8218 22.0472 27.1953 15.4285 27.1953C13.426 27.1938 11.4425 26.6918 9.69538 25.7393L8.68314 25.1885L7.56528 25.4521L4.60779 26.1494L5.32956 23.4717L5.65523 22.2705L5.03322 21.1924C3.98467 19.3804 3.42974 17.3086 3.43124 15.2041C3.43425 8.6011 8.81712 3.22754 15.4314 3.22754ZM10.1237 8.29004C9.87288 8.29004 9.46725 8.38379 9.12324 8.75879C8.77924 9.13229 7.8088 10.0369 7.8088 11.8789C7.8088 13.7209 9.15258 15.5015 9.34036 15.752C9.52664 16.001 11.9342 19.9004 15.7453 21.4004C18.912 22.6469 19.5552 22.4009 20.2432 22.3379C20.9312 22.2764 22.4628 21.4341 22.7752 20.5596C23.0877 19.6851 23.0884 18.9328 22.9953 18.7783C22.9022 18.6223 22.652 18.5293 22.2765 18.3418C21.9024 18.1543 20.0591 17.2505 19.7151 17.126C19.3711 17.0015 19.1194 16.9385 18.8701 17.3135C18.6207 17.6885 17.904 18.5293 17.6847 18.7783C17.4654 19.0288 17.2475 19.0625 16.872 18.875C16.4964 18.686 15.2889 18.2896 13.8558 17.0146C12.7412 16.0231 11.9891 14.7998 11.7697 14.4248C11.5519 14.0513 11.7492 13.8462 11.937 13.6602C12.1052 13.4922 12.3096 13.2229 12.4974 13.0039C12.6836 12.7849 12.7482 12.6289 12.8729 12.3799C12.9976 12.1309 12.9338 11.9111 12.8406 11.7236C12.7475 11.5361 12.0181 9.68729 11.6846 8.94629C11.4037 8.32379 11.107 8.30933 10.8396 8.29883C10.6218 8.28983 10.3731 8.29004 10.1237 8.29004Z" fill="white"/>
</svg>
