<svg width="41" height="29" viewBox="0 0 41 29" fill="none" xmlns="http://www.w3.org/2000/svg">
<path d="M40.17 4.77293C39.7089 3.05938 38.3579 1.70867 36.6446 1.24725C33.5145 0.390625 20.9938 0.390625 20.9938 0.390625C20.9938 0.390625 8.47336 0.390625 5.34318 1.2146C3.66289 1.67571 2.27893 3.05968 1.81781 4.77293C0.994141 7.9028 0.994141 14.3939 0.994141 14.3939C0.994141 14.3939 0.994141 20.9176 1.81781 24.0148C2.27923 25.728 3.62993 27.0791 5.34349 27.5405C8.50632 28.3971 20.9941 28.3971 20.9941 28.3971C20.9941 28.3971 33.5145 28.3971 36.6446 27.5731C38.3582 27.112 39.7089 25.761 40.1703 24.0478C40.994 20.9176 40.994 14.4268 40.994 14.4268C40.994 14.4268 41.0269 7.9028 40.17 4.77293Z" fill="#FF0000"/>
<path d="M17.0073 20.3904L27.419 14.3937L17.0073 8.39697V20.3904Z" fill="white"/>
</svg>
